<svg width="128" height="128" viewBox="0 0 128 128" fill="none" xmlns="http://www.w3.org/2000/svg">
<path d="M40.5289 77.8201V50.7401H41.9989V55.0001C42.1725 54.8114 42.3329 54.6109 42.4789 54.4001C43.0796 53.1532 44.0232 52.1034 45.1993 51.3737C46.3753 50.644 47.735 50.2646 49.1189 50.2801C52.4689 50.1801 55.1889 51.4201 56.7889 54.4001C57.807 56.2513 58.3672 58.3193 58.4229 60.4313C58.4786 62.5432 58.028 64.6378 57.1089 66.5401C55.6189 69.8801 51.9389 71.5401 47.9989 70.9301C46.7728 70.8257 45.5924 70.4159 44.5653 69.7382C43.5382 69.0604 42.6972 68.1363 42.1189 67.0501V77.8201H40.5289ZM41.9989 60.3201C42.1289 61.6401 42.1789 62.5801 42.3289 63.5001C42.9089 67.1201 45.0489 69.2701 48.4089 69.6601C49.9866 69.9195 51.6054 69.6237 52.9894 68.8232C54.3734 68.0226 55.437 66.767 55.9989 65.2701C56.6446 63.7305 56.9553 62.0711 56.9105 60.4021C56.8657 58.7332 56.4663 57.0929 55.7389 55.5901C55.1391 54.2485 54.1191 53.1385 52.8328 52.4277C51.5466 51.7169 50.064 51.444 48.6089 51.6501C47.2428 51.7491 45.9414 52.2713 44.8858 53.1441C43.8302 54.0169 43.0728 55.1969 42.7189 56.5201C42.4057 57.7718 42.1653 59.0406 41.9989 60.3201ZM88.4089 64.0001C88.1862 65.9067 87.2786 67.6676 85.8549 68.9552C84.4311 70.2428 82.5882 70.9695 80.6689 71.0001C74.5089 71.3101 71.6189 67.2201 71.1589 62.5001C70.8396 59.9369 71.2558 57.3357 72.3589 55.0001C73.1271 53.398 74.3852 52.0819 75.9511 51.2424C77.517 50.4028 79.3094 50.0833 81.0689 50.3301C82.7417 50.4719 84.3275 51.1363 85.6017 52.2293C86.876 53.3223 87.7741 54.7884 88.1689 56.4201C88.4819 57.9062 88.7122 59.4085 88.8589 60.9201H72.6689C72.3689 65.2001 74.6689 68.6401 77.9289 69.4701C81.9889 70.4701 85.4589 68.7101 86.7189 64.8501C86.9989 63.8601 87.5089 63.7201 88.4089 64.0001ZM72.6689 59.5501H87.1389C87.0489 54.9901 84.2089 51.6901 80.3589 51.6401C75.9989 51.5701 72.8589 54.7501 72.6689 59.5501ZM91.3889 64.1001H92.8089C92.8614 65.145 93.2009 66.1552 93.7901 67.0196C94.3794 67.8841 95.1955 68.5694 96.1489 69.0001C97.3461 69.5389 98.6494 69.8007 99.9618 69.766C101.274 69.7314 102.562 69.4013 103.729 68.8001C104.365 68.5134 104.898 68.0385 105.255 67.4394C105.613 66.8404 105.778 66.146 105.729 65.4501C105.765 64.7789 105.582 64.1141 105.207 63.5565C104.831 62.9989 104.285 62.5788 103.649 62.3601C102.089 61.7801 100.429 61.4601 98.8389 60.9501C97.1845 60.479 95.5669 59.8874 93.9989 59.1801C91.4389 57.9301 91.2789 53.0601 94.1789 51.5201C95.6638 50.6822 97.335 50.2294 99.0398 50.2032C100.745 50.177 102.429 50.5782 103.939 51.3701C104.854 51.8756 105.592 52.648 106.057 53.5842C106.522 54.5204 106.69 55.5759 106.539 56.6101H105.319C105.319 56.5501 105.209 56.5001 105.209 56.4401C105.059 52.5501 101.799 51.3501 98.2989 51.6901C97.2541 51.819 96.2393 52.1268 95.2989 52.6001C94.734 52.8585 94.2632 53.2858 93.9515 53.8232C93.6398 54.3606 93.5026 54.9815 93.5589 55.6001C93.5606 56.2191 93.7538 56.8223 94.1118 57.3272C94.4699 57.832 94.9754 58.2138 95.5589 58.4201C97.0989 58.9801 98.7089 59.3401 100.289 59.7801C101.559 60.1301 102.879 60.3601 104.109 60.7801C104.977 61.0647 105.738 61.6062 106.292 62.333C106.845 63.0598 107.165 63.9376 107.209 64.8501C107.357 65.85 107.187 66.8712 106.722 67.7687C106.257 68.6663 105.521 69.3945 104.619 69.8501C101.279 71.7401 95.7789 71.2401 93.3289 68.8501C92.708 68.2256 92.2169 67.4844 91.8839 66.6691C91.5509 65.8539 91.3827 64.9807 91.3889 64.1001ZM125.209 56.6101H123.879C123.879 56.4301 123.809 56.2701 123.789 56.1201C123.767 55.1232 123.404 54.1639 122.759 53.403C122.115 52.642 121.229 52.1256 120.249 51.9401C118.4 51.4097 116.428 51.5046 114.639 52.2101C113.932 52.4129 113.309 52.839 112.864 53.4247C112.419 54.0104 112.175 54.7244 112.169 55.4601C112.144 56.1826 112.369 56.8916 112.806 57.4673C113.244 58.043 113.866 58.4502 114.569 58.6201C116.569 59.2401 118.619 59.6201 120.649 60.1801C121.307 60.338 121.955 60.535 122.589 60.7701C123.536 61.109 124.359 61.7258 124.95 62.5398C125.541 63.3539 125.873 64.3273 125.902 65.3329C125.932 66.3386 125.657 67.3296 125.114 68.1765C124.571 69.0235 123.785 69.6869 122.859 70.0801C121.448 70.7209 119.918 71.0599 118.368 71.0754C116.819 71.0909 115.283 70.7826 113.859 70.1701C112.688 69.6651 111.7 68.8136 111.028 67.7302C110.356 66.6468 110.031 65.3834 110.099 64.1101H111.399C111.639 65.2704 112.159 66.3546 112.913 67.2688C113.667 68.1829 114.632 68.8996 115.726 69.3566C116.819 69.8136 118.007 69.9972 119.187 69.8915C120.368 69.7858 121.504 69.3941 122.499 68.7501C123.105 68.4353 123.608 67.9533 123.948 67.3613C124.288 66.7693 124.452 66.0922 124.419 65.4101C124.449 64.7385 124.259 64.0754 123.879 63.5214C123.498 62.9674 122.947 62.5526 122.309 62.3401C120.749 61.7601 119.089 61.4501 117.499 60.9401C115.835 60.4763 114.207 59.8914 112.629 59.1901C110.129 57.9601 109.929 53.1301 112.779 51.5901C114.282 50.717 115.986 50.248 117.724 50.2288C119.463 50.2095 121.177 50.6406 122.699 51.4801C123.57 51.9999 124.27 52.7615 124.716 53.6723C125.162 54.5831 125.333 55.6038 125.209 56.6101ZM38.0989 70.5101C37.5753 70.7084 36.9973 70.708 36.474 70.509C35.9507 70.31 35.5184 69.9262 35.2589 69.4301C33.6289 66.9901 31.8289 64.6601 30.0989 62.2801L29.3489 61.2801C27.2889 64.0401 25.2289 66.6901 23.3489 69.4401C23.104 69.9142 22.6951 70.2831 22.1983 70.4781C21.7016 70.6731 21.151 70.6809 20.6489 70.5001L28.3789 60.1301L21.1889 50.7601C21.7065 50.5732 22.2727 50.5707 22.7919 50.7529C23.3111 50.935 23.7516 51.2908 24.0389 51.7601C25.7089 54.2001 27.5589 56.5301 29.3989 59.0001C31.2489 56.5501 33.0789 54.2101 34.7889 51.7901C35.0352 51.3237 35.4443 50.9641 35.9385 50.7798C36.4326 50.5954 36.9773 50.5991 37.4689 50.7901L34.6789 54.4901C33.4289 56.1401 32.1989 57.8001 30.8989 59.4101C30.7942 59.5039 30.7104 59.6187 30.653 59.7471C30.5956 59.8755 30.566 60.0145 30.566 60.1551C30.566 60.2957 30.5956 60.4347 30.653 60.5631C30.7104 60.6915 30.7942 60.8063 30.8989 60.9001C33.2889 64.0701 35.6589 67.2501 38.0989 70.5101ZM70.9189 50.6601V52.0601C69.9075 51.9938 68.8934 52.1403 67.9421 52.4901C66.9908 52.8399 66.1234 53.3853 65.396 54.0911C64.6685 54.7969 64.0971 55.6474 63.7187 56.5877C63.3402 57.528 63.1632 58.5372 63.1989 59.5501V70.5501H61.7689V50.7401H63.1689V54.8001C64.8989 51.8401 67.5689 50.7401 70.9189 50.6601ZM2.12891 60.0001C2.33891 59.0001 2.46891 57.9101 2.75891 56.8901C4.48891 50.7401 11.5389 48.1801 16.3889 51.9901C19.2289 54.2201 19.9389 57.3801 19.7989 60.9401H3.79891C3.53891 67.3001 8.12891 71.1401 13.9989 69.1801C14.9511 68.8395 15.8035 68.2671 16.4791 67.5147C17.1548 66.7622 17.6324 65.8534 17.8689 64.8701C18.1789 63.8701 18.6789 63.7001 19.6289 63.9901C19.4724 65.2075 19.042 66.3736 18.3699 67.4007C17.6979 68.4278 16.8018 69.2892 15.7489 69.9201C14.0093 70.8714 12.0135 71.2483 10.0467 70.9968C8.08004 70.7454 6.24321 69.8785 4.79891 68.5201C3.37006 66.9136 2.50611 64.8836 2.33891 62.7401C2.33891 62.4001 2.20891 62.0601 2.13891 61.7401C2.13224 61.1468 2.12891 60.5668 2.12891 60.0001ZM3.81891 59.5701H18.2889C18.1989 54.9601 15.2889 51.6901 11.4089 51.6601C7.08891 51.6001 3.99891 54.8001 3.80891 59.5501L3.81891 59.5701Z" fill="white"/>
</svg>
