<svg width="128" height="128" viewBox="0 0 128 128" fill="none" xmlns="http://www.w3.org/2000/svg">
<path fill-rule="evenodd" clip-rule="evenodd" d="M64.0013 5.10254C30.6543 5.10254 3.61328 32.1375 3.61328 65.4905C3.61328 92.1725 20.9163 114.808 44.9103 122.794C47.9273 123.354 49.0353 121.484 49.0353 119.889C49.0353 118.449 48.9793 113.692 48.9533 108.646C32.1533 112.299 28.6083 101.521 28.6083 101.521C25.8613 94.5405 21.9033 92.6845 21.9033 92.6845C16.4233 88.9365 22.3163 89.0145 22.3163 89.0145C28.3793 89.4395 31.5733 95.2375 31.5733 95.2375C36.9593 104.468 45.7003 101.8 49.1463 100.258C49.6883 96.3545 51.2533 93.6895 52.9803 92.1815C39.5673 90.6565 25.4663 85.4775 25.4663 62.3385C25.4663 55.7455 27.8263 50.3585 31.6893 46.1285C31.0613 44.6085 28.9943 38.4665 32.2733 30.1485C32.2733 30.1485 37.3433 28.5255 48.8833 36.3385C53.7013 34.9995 58.8683 34.3265 64.0013 34.3035C69.1313 34.3265 74.3013 34.9975 79.1283 36.3365C90.6543 28.5235 95.7183 30.1465 95.7183 30.1465C99.0053 38.4635 96.9383 44.6065 96.3113 46.1265C100.183 50.3565 102.526 55.7435 102.526 62.3365C102.526 85.5305 88.3993 90.6365 74.9523 92.1325C77.1193 94.0065 79.0493 97.6825 79.0493 103.316C79.0493 111.396 78.9793 117.899 78.9793 119.888C78.9793 121.495 80.0673 123.378 83.1273 122.785C107.107 114.791 124.39 92.1625 124.39 65.4905C124.389 32.1395 97.3513 5.10354 64.0013 5.10354V5.10254Z" fill="#fff"/>
<path d="M26.4855 91.8054C26.3525 92.1054 25.8805 92.1954 25.4505 91.9904C25.0105 91.7944 24.7655 91.3854 24.9075 91.0844C25.0375 90.7744 25.5105 90.6894 25.9475 90.8964C26.3875 91.0934 26.6375 91.5064 26.4845 91.8064L26.4855 91.8054ZM28.9315 94.5344C28.6445 94.8014 28.0815 94.6774 27.6995 94.2544C27.3035 93.8344 27.2295 93.2714 27.5225 93.0004C27.8205 92.7344 28.3665 92.8604 28.7625 93.2804C29.1565 93.7064 29.2345 94.2644 28.9325 94.5354L28.9315 94.5344ZM31.3135 98.0114C30.9435 98.2694 30.3375 98.0284 29.9635 97.4914C29.5935 96.9534 29.5935 96.3084 29.9735 96.0514C30.3465 95.7934 30.9435 96.0264 31.3235 96.5584C31.6915 97.1034 31.6915 97.7484 31.3135 98.0104V98.0114ZM34.5745 101.372C34.2445 101.737 33.5385 101.639 33.0225 101.142C32.4955 100.655 32.3485 99.9624 32.6795 99.5984C33.0155 99.2324 33.7245 99.3344 34.2435 99.8284C34.7705 100.314 34.9295 101.008 34.5765 101.371L34.5745 101.372ZM39.0745 103.323C38.9275 103.796 38.2495 104.011 37.5645 103.809C36.8815 103.602 36.4345 103.049 36.5745 102.571C36.7145 102.094 37.3975 101.871 38.0865 102.086C38.7695 102.292 39.2165 102.842 39.0745 103.323ZM44.0175 103.684C44.0345 104.182 43.4545 104.594 42.7375 104.604C42.0145 104.621 41.4295 104.217 41.4225 103.727C41.4225 103.224 41.9905 102.817 42.7125 102.803C43.4295 102.79 44.0185 103.19 44.0185 103.683L44.0175 103.684ZM48.6155 102.902C48.7015 103.387 48.2025 103.886 47.4895 104.019C46.7895 104.149 46.1395 103.847 46.0495 103.366C45.9635 102.868 46.4715 102.369 47.1715 102.24C47.8855 102.117 48.5255 102.41 48.6155 102.903V102.902Z" fill="#fff"/>
</svg>
