<svg width="842" height="734" viewBox="0 0 842 734" fill="none" xmlns="http://www.w3.org/2000/svg">
<path d="M40 578.5C28.3333 578.5 19.6667 576.833 14 573.5C8.33333 569.833 4.66666 565.833 3 561.5C1.33333 557.167 0.499998 553.833 0.499998 551.5C0.499998 547.167 2 543.5 5 540.5C8 537.5 12.1667 536 17.5 536C20.1667 536 22.6667 536.833 25 538.5C27 539.833 28 542 28 545C28 548.333 26.8333 550.833 24.5 552.5C22.1667 553.833 19.5 554.5 16.5 554.5C14.1667 554.5 12.1667 554.333 10.5 554C8.83333 553.333 8 553 8 553C8 557.333 10.1667 561.833 14.5 566.5C18.8333 570.833 26.1667 573 36.5 573C51.8333 573 65.8333 568.667 78.5 560C91.1667 551 103.167 539.5 114.5 525.5C125.833 511.5 137 496.5 148 480.5C159 464.5 170.5 449.167 182.5 434.5C198.5 414.833 214.833 396.5 231.5 379.5C248.167 362.167 265.167 347.333 282.5 335C299.833 322.333 317.5 313.5 335.5 308.5C338.167 307.833 339.667 308.333 340 310C340.333 311.667 339.167 312.833 336.5 313.5C322.167 317.5 308.167 325.167 294.5 336.5C280.833 347.833 267.333 361.667 254 378C241 394 227.833 411.167 214.5 429.5C201.5 447.5 188.167 465.333 174.5 483C161.167 500.667 147.333 516.667 133 531C118.667 545.333 103.833 556.833 88.5 565.5C73.1667 574.167 57 578.5 40 578.5ZM217 469C197.333 469 182 466.333 171 461C160 455.667 154.5 448.5 154.5 439.5C154.5 434.833 156 431.167 159 428.5C162 425.5 165.333 423.5 169 422.5C173 421.167 176.167 420.5 178.5 420.5C180.5 420.5 181.5 421.167 181.5 422.5C181.5 423.5 180.667 424.167 179 424.5C174.667 425.167 170.667 427.333 167 431C163.667 434.333 162 437.5 162 440.5C162 444.833 166.167 449.833 174.5 455.5C183.167 461.167 196.5 464 214.5 464C223.5 464 233.833 462 245.5 458C257.167 453.667 268.333 447.333 279 439C290 430.333 299 419.833 306 407.5C313 394.833 316.5 380.167 316.5 363.5C316.5 344.833 308.167 331.667 291.5 324C275.167 316 252.667 312 224 312C200.333 312 177.833 315.5 156.5 322.5C135.167 329.5 116.167 338.5 99.5 349.5C83.1667 360.5 70.1667 372.333 60.5 385C51.1667 397.667 46.5 409.667 46.5 421C46.5 432.333 49.1667 440.5 54.5 445.5C60.1667 450.5 66.8333 453 74.5 453C83.8333 453 93.1667 450.167 102.5 444.5C112.167 438.5 121.167 431 129.5 422C137.833 412.667 145.333 403 152 393C158.667 382.667 164 373.167 168 364.5C172 355.833 174.167 349.167 174.5 344.5C174.833 341.167 175.5 339.5 176.5 339.5C177.833 339.5 178.667 340.667 179 343C180 353.333 178.167 365.167 173.5 378.5C169.167 391.5 162.333 404.167 153 416.5C144 428.5 132.833 438.5 119.5 446.5C106.167 454.5 91.3333 458.5 75 458.5C64.6667 458.5 56.3333 455.333 50 449C43.6667 442.333 40.5 432.833 40.5 420.5C40.5 408.5 45.3333 396 55 383C64.6667 369.667 78 357.333 95 346C112 334.667 131.5 325.5 153.5 318.5C175.833 311.167 199.333 307.5 224 307.5C253 307.5 275.833 310.833 292.5 317.5C309.5 324.167 321.5 333 328.5 344C335.833 354.667 339.5 366 339.5 378C339.5 387.333 336.333 397.333 330 408C324 418.667 315.5 428.667 304.5 438C293.5 447 280.5 454.5 265.5 460.5C250.833 466.167 234.667 469 217 469ZM380.406 446.5C397.073 446.5 405.406 454.5 405.406 470.5C405.406 482.833 402.573 495.5 396.906 508.5C391.24 521.167 383.573 532.833 373.906 543.5C364.24 553.833 353.74 562.333 342.406 569C331.073 575.333 319.573 578.5 307.906 578.5C298.906 578.5 291.406 576.333 285.406 572C279.073 567.333 275.906 559.833 275.906 549.5C275.906 539.833 278.74 529.167 284.406 517.5C290.073 505.5 297.74 494.167 307.406 483.5C317.406 472.833 328.573 464 340.906 457C353.573 450 366.74 446.5 380.406 446.5ZM385.906 453.5C380.24 453.5 373.573 456 365.906 461C358.24 466 350.406 472.5 342.406 480.5C334.406 488.5 326.906 497.167 319.906 506.5C313.24 515.5 307.74 524.333 303.406 533C299.406 541.667 297.406 549 297.406 555C297.406 561.667 299.24 566.333 302.906 569C306.573 571.333 310.74 572.5 315.406 572.5C323.073 572.5 331.74 569.333 341.406 563C351.073 556.333 360.406 548 369.406 538C378.406 528 385.74 517.5 391.406 506.5C397.406 495.167 400.406 484.833 400.406 475.5C400.406 466.833 398.906 461 395.906 458C392.906 455 389.573 453.5 385.906 453.5ZM394.906 505C396.573 505 397.24 505.667 396.906 507C396.906 508 396.073 508.5 394.406 508.5C393.073 508.5 391.073 510.333 388.406 514C386.073 517.333 383.906 520.833 381.906 524.5C379.906 528.167 378.906 530.167 378.906 530.5C378.906 538.167 381.74 542 387.406 542C392.74 542 398.74 539.5 405.406 534.5C412.406 529.5 419.073 523.833 425.406 517.5C432.073 510.833 437.406 505 441.406 500L445.406 503.5C441.073 508.5 435.573 514.5 428.906 521.5C422.24 528.167 415.24 534.167 407.906 539.5C400.573 544.5 393.74 547 387.406 547C382.073 547 378.406 545.833 376.406 543.5C374.406 541.167 373.406 537 373.406 531C373.406 523 376.073 516.667 381.406 512C387.073 507.333 391.573 505 394.906 505ZM527.379 446.5C544.046 446.5 552.379 454.5 552.379 470.5C552.379 482.833 549.546 495.5 543.879 508.5C538.212 521.167 530.546 532.833 520.879 543.5C511.212 553.833 500.712 562.333 489.379 569C478.046 575.333 466.546 578.5 454.879 578.5C445.879 578.5 438.379 576.333 432.379 572C426.046 567.333 422.879 559.833 422.879 549.5C422.879 539.833 425.712 529.167 431.379 517.5C437.046 505.5 444.712 494.167 454.379 483.5C464.379 472.833 475.546 464 487.879 457C500.546 450 513.712 446.5 527.379 446.5ZM532.879 453.5C527.212 453.5 520.546 456 512.879 461C505.212 466 497.379 472.5 489.379 480.5C481.379 488.5 473.879 497.167 466.879 506.5C460.212 515.5 454.712 524.333 450.379 533C446.379 541.667 444.379 549 444.379 555C444.379 561.667 446.212 566.333 449.879 569C453.546 571.333 457.712 572.5 462.379 572.5C470.046 572.5 478.712 569.333 488.379 563C498.046 556.333 507.379 548 516.379 538C525.379 528 532.712 517.5 538.379 506.5C544.379 495.167 547.379 484.833 547.379 475.5C547.379 466.833 545.879 461 542.879 458C539.879 455 536.546 453.5 532.879 453.5ZM541.879 505C543.546 505 544.212 505.667 543.879 507C543.879 508 543.046 508.5 541.379 508.5C540.046 508.5 538.046 510.333 535.379 514C533.046 517.333 530.879 520.833 528.879 524.5C526.879 528.167 525.879 530.167 525.879 530.5C525.879 538.167 528.712 542 534.379 542C539.712 542 545.712 539.5 552.379 534.5C559.379 529.5 566.046 523.833 572.379 517.5C579.046 510.833 584.379 505 588.379 500L592.379 503.5C588.046 508.5 582.546 514.5 575.879 521.5C569.212 528.167 562.212 534.167 554.879 539.5C547.546 544.5 540.712 547 534.379 547C529.046 547 525.379 545.833 523.379 543.5C521.379 541.167 520.379 537 520.379 531C520.379 523 523.046 516.667 528.379 512C534.046 507.333 538.546 505 541.879 505ZM367.352 729.5C360.018 729.5 355.018 728.167 352.352 725.5C349.685 722.833 348.352 719.167 348.352 714.5C348.352 707.833 352.518 700.5 360.852 692.5C369.185 684.833 380.518 676.667 394.852 668C409.185 659.667 425.685 651.333 444.352 643C462.685 634.667 482.018 626.5 502.352 618.5C529.685 607.833 552.852 597.167 571.852 586.5C590.518 575.833 607.185 563.667 621.852 550C636.518 536 651.185 519.5 665.852 500.5L669.352 503.5C654.685 522.833 639.852 539.5 624.852 553.5C609.852 567.167 592.852 579.5 573.852 590.5C554.852 601.5 531.685 612.333 504.352 623C484.685 630.667 466.018 638.5 448.352 646.5C430.352 654.833 414.352 663 400.352 671C386.352 679 375.352 686.667 367.352 694C359.018 701.333 354.852 708.333 354.852 715C354.852 718.667 356.185 721.167 358.852 722.5C361.185 723.833 364.685 724.5 369.352 724.5C380.352 724.5 391.852 720.5 403.852 712.5C415.852 704.5 428.352 693.667 441.352 680C454.352 666.667 467.685 651.667 481.352 635C494.685 618.333 508.018 601.5 521.352 584.5C533.352 569.167 545.352 554.167 557.352 539.5C569.018 524.833 579.685 511.333 589.352 499C599.352 486.333 607.352 475.5 613.352 466.5C619.352 457.5 622.518 451.167 622.852 447.5C625.518 447.833 629.852 448.333 635.852 449C642.185 449.333 648.018 449 653.352 448C640.352 465 624.018 486.667 604.352 513C585.018 539 563.685 565.833 540.352 593.5C527.018 609.5 513.852 625.5 500.852 641.5C487.518 657.5 474.018 672.167 460.352 685.5C446.352 698.833 431.852 709.5 416.852 717.5C401.518 725.5 385.018 729.5 367.352 729.5ZM668.352 410C664.352 410 661.352 408.833 659.352 406.5C657.352 403.833 656.352 400.833 656.352 397.5C656.352 393.833 658.352 390 662.352 386C666.352 382 670.518 380 674.852 380C679.518 380 682.852 381.333 684.852 384C686.852 386.333 687.852 388.667 687.852 391C687.852 396 685.852 400.5 681.852 404.5C677.852 408.167 673.352 410 668.352 410ZM774.977 486.5C773.643 489.167 771.643 491.5 768.977 493.5C766.643 495.5 764.81 496.833 763.477 497.5C762.477 497.833 762.81 496.833 764.477 494.5C770.477 487.167 774.31 480.333 775.977 474C777.977 467.667 777.977 462.667 775.977 459C774.31 455 770.977 453 765.977 453C759.31 453 751.477 455.667 742.477 461C733.477 466.333 724.143 473.333 714.477 482C705.143 490.667 696.31 500 687.977 510C679.977 519.667 673.477 529.167 668.477 538.5C663.477 547.5 660.977 555.333 660.977 562C660.977 567 661.977 570.167 663.977 571.5C665.977 572.833 667.977 573.5 669.977 573.5C677.643 573.5 686.477 570 696.477 563C706.81 555.667 717.31 546.5 727.977 535.5C738.643 524.5 748.81 513.333 758.477 502C768.143 490.333 776.477 479.833 783.477 470.5C790.81 461.167 795.81 454.833 798.477 451.5C802.143 452.833 806.477 453.333 811.477 453C816.81 452.667 821.31 452.333 824.977 452C824.31 453 820.81 457.167 814.477 464.5C808.477 471.833 801.143 480.667 792.477 491C784.143 501 775.643 511.333 766.977 522C758.643 532.667 751.643 542 745.977 550C740.31 558 737.477 563.333 737.477 566C737.477 569.333 738.143 571.5 739.477 572.5C741.143 573.167 743.643 573.5 746.977 573.5C750.977 573.167 756.81 571.333 764.477 568C772.143 564.333 781.977 557.333 793.977 547C805.977 536.667 820.477 521.333 837.477 501C837.477 501 838.143 501.5 839.477 502.5C841.143 503.5 841.977 504 841.977 504C821.977 527.333 803.477 545.667 786.477 559C769.477 572 753.977 578.5 739.977 578.5C732.643 578.5 727.643 577.333 724.977 575C722.643 572.667 721.477 569.333 721.477 565C721.477 561.667 722.81 557.667 725.477 553C728.477 548 731.81 543.167 735.477 538.5C739.143 533.833 742.143 530.167 744.477 527.5C744.477 527.5 744.143 527.333 743.477 527C742.81 526.667 742.477 526.5 742.477 526.5C734.81 535.833 726.643 544.5 717.977 552.5C709.31 560.5 700.643 566.833 691.977 571.5C683.643 576.167 675.477 578.5 667.477 578.5C659.143 578.5 653.31 576.5 649.977 572.5C646.643 568.167 644.977 561.667 644.977 553C644.977 544.667 647.643 534.667 652.977 523C658.31 511 665.977 499.333 675.977 488C685.977 476.333 697.977 466.667 711.977 459C726.31 451.333 742.31 447.5 759.977 447.5C768.643 447.5 774.643 449.167 777.977 452.5C781.31 455.5 782.81 459.167 782.477 463.5C782.143 467.833 781.143 472.167 779.477 476.5C777.81 480.833 776.31 484.167 774.977 486.5Z" fill="white"/>
<path fill-rule="evenodd" clip-rule="evenodd" d="M618.596 12L373 150.588L511.588 396.184L757.184 257.596L618.596 12ZM613.627 37.1897L400.103 159.35L522.263 372.875L735.788 250.714L613.627 37.1897Z" fill="url(#paint0_linear_241_20)"/>
<path fill-rule="evenodd" clip-rule="evenodd" d="M564.596 0L319 138.588L457.588 384.184L703.184 245.596L564.596 0ZM559.627 25.1897L346.103 147.35L468.263 360.875L681.788 238.714L559.627 25.1897Z" fill="url(#paint1_linear_241_20)"/>
<defs>
<linearGradient id="paint0_linear_241_20" x1="495.798" y1="81.295" x2="634.384" y2="326.89" gradientUnits="userSpaceOnUse">
<stop stop-color="#BF953F"/>
<stop offset="1" stop-color="#FCF6BA"/>
</linearGradient>
<linearGradient id="paint1_linear_241_20" x1="441.798" y1="69.295" x2="580.384" y2="314.89" gradientUnits="userSpaceOnUse">
<stop stop-color="#DABA7A"/>
<stop offset="1" stop-color="#EDE8B8"/>
</linearGradient>
</defs>
</svg>
